<svg width="98" height="38" xmlns="http://www.w3.org/2000/svg"><path d="M22.293 7.583L19.017 5l-3.422 2.699-.178.143 3.6 2.87 3.612-2.87-.336-.259zm12.415 10.018l-15.7 12.38-15.69-12.373L1 19.47l18.008 14.199 18.018-14.207-2.318-1.861zm-15.7 1.004l-8.544-6.736-2.317 1.861 10.86 8.564 10.871-8.572-2.317-1.861-8.553 6.744zM89.862 32.84h3.322v1.726H75.84V32.84h2.786l-1.813-10.591-.045-.261.262-.043 1.21-.198.257-.042.044.257 1.863 10.878h2.86V19.72h-8.352v-1.728h8.353v-5.697h-5.569v-1.727h13.11v1.727h-5.79v5.697h9.346v1.727h-9.346v13.12h3.068l1.862-10.878.044-.257.258.042 1.21.198.261.043-.045.26-1.812 10.592zm-24.56-.563v-8.455h4.291v-9.134H67.84v7.407h-2.538V14.15h-1.753v7.945H61.05v-7.407h-1.753v9.134h4.253v8.455h-2.5v-7.294h-1.753v9.021h10.296v-9.021H67.84v7.294h-2.538zm-14.634-8.454l-1.24 1.217-.183.18-.184-.18-.869-.848-.192-.188.192-.188 2.476-2.43v-10.08h-2.163V9.58h2.163V5h1.753v4.58h2.53v1.727h-2.53v8.359l1.469-1.441.184-.18.184.18.868.848.192.187-.192.189-2.705 2.654v3.731a19.21 19.21 0 0 1-.79 5.414c-.305 1.034-.608 1.787-.846 2.272l-.268.54-.116.231-.233-.111-1.102-.524-.24-.115.117-.24.267-.54c.038-.077.126-.274.23-.533a17.568 17.568 0 0 0 1.228-6.394v-2.01zm5.609 10.334l.052-.255.122-.59c.732-3.537 1.006-11.22.974-20.574h12.659V5H55.578l.006.269.014.613a411.502 411.502 0 0 1 .056 11.275c-.068 7.43-.354 13.07-.921 15.81l-.121.59-.053.259.26.051 1.202.24.256.05zm1.143-23.146l-.057-4.284H68.33v4.284H57.42zm36.386 1.802l.177-.188.833-.882.184-.195-.2-.18-6.96-6.3L87.665 5h-7.273l-.177.068-6.96 6.3-.199.18.185.195.831.882.177.188.191-.173 6.608-5.913h5.961l6.607 5.913.191.173z" fill="#006CFF" fill-rule="evenodd"/></svg>